<svg width="640" height="512" viewBox="0 0 640 512" fill="none" xmlns="http://www.w3.org/2000/svg">
<g style="mix-blend-mode:lighten" opacity="0.8" filter="url(#filter0_f_959_10220)">
<path d="M165.427 151.456C165.281 150.715 165.42 149.999 165.75 149.321L228.492 20.6149C229.261 19.0366 230.967 18.1499 232.698 18.4285L332.734 34.5298C335.625 34.9952 337.232 38.4124 336.039 41.0922C326.953 61.499 306.636 137.249 429.774 254.847C575.127 393.659 499.837 324.808 336.208 271.758C184.735 222.651 167.197 160.431 165.427 151.456Z" fill="url(#paint0_linear_959_10220)" style="mix-blend-mode:lighten"/>
</g>
<path opacity="0.8" d="M312.6 293.672L167 0.671875H203.4L349 293.672H312.6Z" fill="url(#paint1_linear_959_10220)"/>
<path opacity="0.8" d="M448.422 346.672L273 -5.32812H279.578L455 346.672H448.422Z" fill="url(#paint2_linear_959_10220)"/>
<defs>
<filter id="filter0_f_959_10220" x="-34.6309" y="-181.622" width="741.831" height="718.129" filterUnits="userSpaceOnUse" color-interpolation-filters="sRGB">
<feFlood flood-opacity="0" result="BackgroundImageFix"/>
<feBlend mode="normal" in="SourceGraphic" in2="BackgroundImageFix" result="shape"/>
<feGaussianBlur stdDeviation="100" result="effect1_foregroundBlur_959_10220"/>
</filter>
<linearGradient id="paint0_linear_959_10220" x1="345.032" y1="263.898" x2="434.497" y2="100.992" gradientUnits="userSpaceOnUse">
<stop offset="0.038" stop-color="#336CFF"/>
<stop offset="0.166667" stop-color="#7149E0"/>
<stop offset="1" stop-color="#C2F6FF"/>
</linearGradient>
<linearGradient id="paint1_linear_959_10220" x1="258" y1="0.671875" x2="258" y2="293.672" gradientUnits="userSpaceOnUse">
<stop stop-color="#72B7F7"/>
<stop offset="1" stop-color="#E672F7" stop-opacity="0"/>
</linearGradient>
<linearGradient id="paint2_linear_959_10220" x1="377.157" y1="-5.32812" x2="377.157" y2="346.672" gradientUnits="userSpaceOnUse">
<stop stop-color="#72F77F"/>
<stop offset="1" stop-color="#E672F7" stop-opacity="0"/>
</linearGradient>
</defs>
</svg>
