<svg xmlns="http://www.w3.org/2000/svg" width="24" height="24" viewBox="0 0 24 24" fill="none">
  <path fill-rule="evenodd" clip-rule="evenodd" d="M12.8126 2.17252C12.2953 1.94249 11.7047 1.94249 11.1874 2.17252C10.7878 2.35017 10.5283 2.66309 10.3477 2.91807C10.1701 3.16876 9.98004 3.49718 9.77096 3.85837L1.50381 18.138C1.2939 18.5005 1.10315 18.8299 0.973806 19.1095C0.842356 19.3937 0.699752 19.7756 0.745201 20.2115C0.804012 20.7756 1.09955 21.2882 1.55827 21.6217C1.91276 21.8795 2.31476 21.9475 2.62652 21.9761C2.93327 22.0042 3.31392 22.0042 3.73281 22.0041H20.2671C20.686 22.0042 21.0667 22.0042 21.3734 21.9761C21.6852 21.9475 22.0872 21.8795 22.4417 21.6217C22.9004 21.2882 23.1959 20.7756 23.2547 20.2115C23.3002 19.7756 23.1576 19.3937 23.0261 19.1095C22.8968 18.83 22.7061 18.5006 22.4962 18.1381L14.229 3.85834C14.0199 3.49716 13.8298 3.16874 13.6522 2.91806C13.4716 2.66309 13.2121 2.35017 12.8126 2.17252ZM13 9.50415C13 8.95187 12.5523 8.50415 12 8.50415C11.4477 8.50415 11 8.95187 11 9.50415V13.5042C11 14.0564 11.4477 14.5042 12 14.5042C12.5523 14.5042 13 14.0564 13 13.5042V9.50415ZM12 16.5042C11.4477 16.5042 11 16.9519 11 17.5042C11 18.0564 11.4477 18.5042 12 18.5042H12.01C12.5623 18.5042 13.01 18.0564 13.01 17.5042C13.01 16.9519 12.5623 16.5042 12.01 16.5042H12Z" fill="#E4423B"/>
</svg>