<svg xmlns="http://www.w3.org/2000/svg" width="35.761" height="28.422" viewBox="0 0 35.761 28.422"><defs><style>.a{fill:none;stroke:#a4b1cd;stroke-linecap:round;stroke-linejoin:round;stroke-width:2px;}</style></defs><g transform="translate(-278.5 -901)"><g transform="translate(279.5 902)"><path class="a" d="M313.261,913.871a2.935,2.935,0,0,1-2.936,2.936h-27.89a2.935,2.935,0,0,1-2.936-2.936v-2.936A2.935,2.935,0,0,1,282.436,908h27.89a2.935,2.935,0,0,1,2.936,2.936Z" transform="translate(-279.5 -899.193)"/><path class="a" d="M283.867,910.75a.367.367,0,1,0,.367.367.367.367,0,0,0-.367-.367h0" transform="translate(-277.628 -897.906)"/><path class="a" d="M287.367,910.75a.367.367,0,1,0,.367.367.367.367,0,0,0-.367-.367h0" transform="translate(-275.991 -897.906)"/><path class="a" d="M313.261,907.871a2.935,2.935,0,0,1-2.936,2.936h-27.89a2.935,2.935,0,0,1-2.936-2.936v-2.936A2.935,2.935,0,0,1,282.436,902h27.89a2.935,2.935,0,0,1,2.936,2.936Z" transform="translate(-279.5 -902)"/><path class="a" d="M283.867,904.75a.367.367,0,1,0,.367.367.367.367,0,0,0-.367-.367h0" transform="translate(-277.628 -900.713)"/><path class="a" d="M287.367,904.75a.367.367,0,1,0,.367.367.367.367,0,0,0-.367-.367h0" transform="translate(-275.991 -900.713)"/><path class="a" d="M313.261,919.872a2.935,2.935,0,0,1-2.936,2.936h-27.89a2.935,2.935,0,0,1-2.936-2.936v-2.936A2.935,2.935,0,0,1,282.436,914h27.89a2.935,2.935,0,0,1,2.936,2.936Z" transform="translate(-279.5 -896.385)"/><path class="a" d="M283.867,916.75a.367.367,0,1,0,.367.367.367.367,0,0,0-.367-.367h0" transform="translate(-277.628 -895.099)"/><path class="a" d="M287.367,916.75a.367.367,0,1,0,.367.367.367.367,0,0,0-.367-.367h0" transform="translate(-275.991 -895.099)"/></g></g></svg>