<svg width="12" height="13" viewBox="0 0 12 13" fill="none" xmlns="http://www.w3.org/2000/svg">
<path fill-rule="evenodd" clip-rule="evenodd" d="M7.52555 0.430388C7.70127 0.528355 7.78753 0.733532 7.73459 0.927629L6.57281 5.18751H10.8125C10.9867 5.18751 11.1443 5.29087 11.2138 5.45065C11.2832 5.61043 11.2512 5.79617 11.1323 5.92353L5.00735 12.486C4.87007 12.6331 4.65019 12.6676 4.47447 12.5696C4.29875 12.4717 4.21249 12.2665 4.26543 12.0724L5.42721 7.81251H1.18751C1.0133 7.81251 0.855689 7.70916 0.786258 7.54938C0.716826 7.3896 0.748805 7.20386 0.867673 7.0765L6.99267 0.514001C7.12994 0.366923 7.34983 0.332422 7.52555 0.430388Z" fill="#9FEF00"/>
</svg>
